<?xml version="1.0" standalone="no"?>
<!DOCTYPE svg PUBLIC "-//W3C//DTD SVG 20010904//EN"
 "http://www.w3.org/TR/2001/REC-SVG-20010904/DTD/svg10.dtd">
<svg version="1.0" xmlns="http://www.w3.org/2000/svg"
 width="1122.000000pt" height="1281.000000pt" viewBox="0 0 1122.000000 1281.000000"
 preserveAspectRatio="xMidYMid meet">

<g transform="translate(0.000000,1281.000000) scale(0.100000,-0.100000)"
fill="#585858" stroke="none">
<path d="M4965 12314 c-319 -185 -1505 -869 -2635 -1521 -1130 -653 -2063
-1193 -2072 -1201 -17 -14 -18 -174 -18 -3086 0 -1689 4 -3076 8 -3083 4 -7
525 -311 1157 -676 633 -365 1823 -1052 2645 -1527 822 -475 1505 -865 1516
-868 20 -4 626 343 3134 1793 278 160 879 507 1335 770 457 263 840 487 853
498 l22 20 0 3067 c0 2437 -3 3070 -12 3083 -7 9 -1202 703 -2656 1542 -1790
1033 -2651 1525 -2670 1525 -17 -1 -242 -125 -607 -336z m-85 -2397 c147 -49
476 -200 557 -255 32 -22 88 -71 124 -110 l67 -70 43 45 c58 59 160 134 234
171 65 33 280 95 409 118 111 19 365 18 464 -2 184 -37 405 -156 522 -281 123
-131 214 -361 227 -569 l6 -90 51 12 c151 38 326 34 452 -9 95 -33 118 -46
264 -146 141 -96 207 -157 269 -249 81 -120 107 -201 136 -422 23 -171 16
-222 -52 -399 -115 -302 -205 -436 -373 -561 -81 -60 -130 -113 -130 -140 -1
-14 -268 -790 -594 -1725 l-592 -1700 -45 -45 c-27 -28 -60 -50 -85 -58 -32
-9 -334 -12 -1286 -12 l-1244 0 -52 26 c-29 14 -63 40 -76 58 -13 17 -340 783
-727 1703 -606 1439 -707 1674 -729 1683 -61 28 -216 128 -254 165 -52 51
-131 164 -165 235 -25 52 -26 65 -29 248 -5 240 6 296 87 455 151 297 268 428
466 523 171 82 338 128 517 143 54 4 100 10 102 12 2 2 0 27 -4 54 -15 90 -12
388 6 473 43 213 158 375 346 490 140 86 487 220 627 242 89 14 408 5 461 -13z"/>
<path d="M4475 9483 c-44 -10 -185 -58 -265 -90 -210 -86 -286 -146 -316 -249
-13 -46 -15 -89 -12 -228 5 -201 17 -242 87 -290 54 -37 127 -136 142 -189 15
-58 7 -142 -18 -175 -44 -60 -240 -131 -284 -104 -62 39 -296 66 -443 51 -147
-15 -354 -85 -423 -143 -40 -34 -127 -164 -181 -272 -40 -80 -40 -81 -43 -206
-3 -119 -2 -128 21 -163 14 -20 57 -58 97 -84 71 -48 72 -48 198 -61 154 -16
271 -5 486 46 80 19 151 34 158 34 24 0 208 73 318 126 96 46 115 59 126 86
22 53 68 99 122 124 87 41 167 27 244 -42 48 -43 58 -61 107 -190 38 -101 148
-215 265 -276 161 -82 183 -88 419 -104 100 -7 291 21 418 61 76 24 94 36 258
168 97 78 198 158 224 178 27 20 75 59 108 87 76 66 120 85 202 85 79 0 142
-29 268 -122 127 -95 315 -165 615 -231 160 -35 301 -40 401 -14 49 13 74 27
126 73 36 32 84 71 106 87 48 35 117 112 141 157 8 17 40 92 69 166 l54 135
-16 120 c-16 130 -27 161 -75 219 -33 40 -199 158 -264 188 -82 38 -224 21
-390 -47 -189 -77 -223 -86 -320 -85 -68 1 -99 6 -132 22 -113 55 -156 199
-93 318 44 84 100 238 100 276 0 58 -48 214 -80 266 -36 55 -137 124 -236 162
-52 19 -78 22 -224 22 -159 0 -170 -2 -298 -37 -115 -32 -143 -44 -200 -85
-56 -41 -73 -60 -102 -118 -28 -58 -35 -85 -40 -155 -4 -69 -11 -95 -35 -138
-40 -74 -72 -98 -148 -111 -86 -15 -91 -15 -147 14 -54 28 -80 58 -135 160
-21 39 -45 81 -55 95 -9 14 -35 64 -59 111 -65 134 -93 160 -245 234 -72 34
-175 81 -228 104 l-97 41 -128 -1 c-70 -1 -137 -3 -148 -6z"/>
<path d="M6657 7038 c-8 -33 -607 -3153 -607 -3161 0 -4 125 -6 277 -5 l278 3
507 1455 c279 800 511 1465 514 1476 5 20 1 22 -98 26 -182 9 -492 87 -767
192 -51 20 -95 36 -96 36 -2 0 -5 -10 -8 -22z"/>
<path d="M4000 6997 c-152 -61 -429 -131 -607 -154 -73 -10 -133 -20 -133 -23
0 -3 279 -666 619 -1475 l619 -1470 257 -3 257 -2 -7 27 c-15 61 -876 3147
-878 3148 -1 1 -58 -21 -127 -48z"/>
<path d="M6110 6859 c-55 -48 -196 -119 -305 -152 -302 -94 -721 -96 -963 -6
-57 21 -117 48 -133 60 -17 12 -32 20 -34 18 -2 -2 174 -641 391 -1419 217
-778 397 -1432 400 -1452 l7 -38 58 0 c33 0 59 2 59 3 0 5 567 2960 576 3000
8 36 -2 34 -56 -14z"/>
</g>
</svg>
